<svg width="25" height="25" viewBox="0 0 24 24" fill="none" xmlns="http://www.w3.org/2000/svg" aria-hidden="true" focusable="false">
	<path fill-rule="evenodd" clip-rule="evenodd" d="M11.76 3.34L12.87 0H14.28L15.39 3.34L18.73 4.45V5.86L15.39 6.97L14.28 10.31H12.87L11.76 6.97L8.42 5.86V4.45L11.76 3.34Z" fill="#7A00DF"/>
	<path fill-rule="evenodd" clip-rule="evenodd" d="M7.51 7.62H3.63L0 23.62H2.52L3.36 19.92H7.76L8.6 23.62H11.12L7.51 7.62ZM7.22 17.44H3.92L5.57 10.2L7.22 17.44Z" fill="#7A00DF"/>
	<path fill-rule="evenodd" clip-rule="evenodd" d="M20.2 23.62L19.97 22.15C19.12 23.06 17.96 23.62 16.61 23.62C13.72 23.62 11.7 20.94 11.7 18.06C11.7 15.18 13.72 12.5 16.61 12.5C17.3 12.5 17.94 12.65 18.51 12.91L18.29 11.47L20.73 11.09L22.7 23.62H20.2ZM14.2 18.06C14.2 16.17 15.48 14.97 16.61 14.97C17.74 14.97 19.02 16.17 19.02 18.06C19.02 19.95 17.74 21.15 16.61 21.15C15.48 21.15 14.2 19.95 14.2 18.06Z" fill="#7A00DF"/>
</svg>
